<?xml version="1.0" encoding="UTF-8"?>
<svg id="light" xmlns="http://www.w3.org/2000/svg" viewBox="0 0 250 200">
  <g>
    <path d="M124.75,82.34l-7.27,31.26c-.21.9-1.15,1.54-2.24,1.54h-14.81c-1.09,0-2.03-.64-2.24-1.54l-7.27-31.26c-.27-1.18.81-2.26,2.24-2.26h29.35c1.43,0,2.51,1.08,2.24,2.26Z" fill="none" stroke="#231f20" stroke-miterlimit="10" stroke-width="5"/>
    <rect x="105.33" y="80.08" width="5" height="35.06" fill="#231f20"/>
    <rect x="105.33" y="85.56" width="5" height="24.11" transform="translate(10.22 205.44) rotate(-90)" fill="#231f20"/>
  </g>
  <path d="M53.69,94.4l38.78,70.68c.79,1.44,2.3,2.34,3.94,2.34l17.1.04s15.29.04,15.29.04h.04s18.2.04,18.2.04c1.43,0,2.75-.77,3.43-2.02l33.65-61.11" fill="none" stroke="#231f20" stroke-miterlimit="10" stroke-width="5"/>
  <path d="M234.85,70.37c-.7-.7-1.6-1.48-2.71-2.21-5.08-3.33-10.55-2.99-12.63-2.74-2.97.37-5.37,1.36-7.11,2.31-.19.11-.42-.09-.34-.29.67-1.87,1.28-4.41,1.17-7.42-.08-2.1-.61-7.55-4.7-12.04-.9-.98-1.8-1.75-2.61-2.33-.81-.59-1.92-.5-2.63.21-.7.7-1.48,1.6-2.21,2.71-3.33,5.08-2.99,10.55-2.74,12.63.37,2.97,1.36,5.37,2.31,7.11.11.19-.09.42-.29.34-1.87-.67-4.41-1.28-7.42-1.17-2.1.08-7.55.61-12.04,4.7-.92.84-1.64,1.68-2.21,2.44-.67.9-.57,2.15.23,2.93.68.66,1.53,1.38,2.57,2.06,5.08,3.33,10.55,2.99,12.63,2.74,2.97-.37,5.37-1.36,7.11-2.31.19-.11.42.09.34.29-.67,1.87-1.28,4.41-1.17,7.42.08,2.1.61,7.55,4.7,12.04.9.98,1.8,1.75,2.61,2.33.81.59,1.92.5,2.63-.21.7-.7,1.48-1.6,2.21-2.71,3.33-5.08,2.99-10.55,2.74-12.63-.37-2.97-1.36-5.37-2.31-7.11-.11-.19.09-.42.29-.34,1.87.67,4.41,1.28,7.42,1.17,2.1-.08,7.55-.61,12.04-4.7.98-.9,1.75-1.8,2.33-2.61.59-.81.5-1.92-.21-2.63ZM207.81,78.67c-2.64.55-5.22-1.14-5.76-3.78-.55-2.64,1.14-5.22,3.78-5.76,2.64-.55,5.22,1.14,5.76,3.78.55,2.64-1.14,5.22-3.78,5.76Z" fill="#231f20"/>
  <path d="M123.63,40.52c-.18.28-.42.56-.72.85-3.69,3.52-18.74,14.94-33.58,26.23-12.49,9.71-25.18,19.03-36.03,26.78-17.03,12.18-29.51,20.51-29.51,20.51-2.78,1.67-8.92,5.34-9.23,4.47-.32-.91,5.87-6.29,7.87-8.05,0,0,72.29-63.35,96.85-73.49,1.1-.45,4.05-1.67,4.56-1.03.04.03.06.07.07.11.23.75.78,2.06-.28,3.62Z" fill="#231f20" stroke="#231f20" stroke-miterlimit="10" stroke-width="4"/>
  <path d="M211.23,129.28c-.36.75-5.37-3.56-7.65-5.52,0,0-8.2-7.75-19.85-19.37-9.51-9.47-21.33-21.53-32.86-34.03-11.88-12.62-23.93-25.39-26.81-29.18-.17-.23-.32-.45-.43-.66-.96-1.71-.29-2.89,0-3.56.04-.09.11-.14.21-.17.73-.2,2.91,1.2,3.75,1.74,20.51,13.11,77.54,82.18,77.54,82.18,1.58,1.92,6.47,7.79,6.1,8.57Z" fill="#231f20" stroke="#231f20" stroke-miterlimit="10" stroke-width="4"/>
  <path d="M135.59,140.07l-5.28,25.85c-.18.9-.96,1.54-1.86,1.56h-14.95c-.13,0-.25-.01-.38-.04-.77-.15-1.39-.77-1.53-1.57l-3.73-21.1c-.19-1.04.5-2.03,1.53-2.24l23.92-4.75c1.36-.27,2.56.93,2.28,2.29Z" fill="#fff" stroke="#231f20" stroke-miterlimit="10" stroke-width="5"/>
  <path d="M151.28,70.01c-11.88-12.62-23.93-25.39-26.81-29.18-.17-.23-.32-.45-.43-.66-.18.28-.42.56-.72.85-3.69,3.52-18.74,14.94-33.58,26.23-12.49,9.71-25.18,19.03-36.03,26.78l38.78,70.68c.79,1.44,2.3,2.34,3.94,2.34l17.1.04c-.77-.15-1.39-.77-1.53-1.57l-3.73-21.1c-.19-1.04.5-2.03,1.53-2.24l23.92-4.75c1.36-.27,2.56.93,2.28,2.29l-5.28,25.85c-.18.9-.96,1.54-1.86,1.56l18.2.04c1.43,0,2.75-.77,3.43-2.02l33.65-61.11c-9.51-9.47-21.33-21.53-32.86-34.03ZM128.82,167.13l-15.29-.04M136,139.72l-5.28,25.85M124.2,85.55l-7.27,31.26c-.21.9-1.15,1.54-2.24,1.54h-14.81c-1.09,0-2.03-.64-2.24-1.54l-7.27-31.26c-.27-1.18.81-2.26,2.24-2.26h29.35c1.43,0,2.51,1.08,2.24,2.26Z" fill="none"/>
</svg>