<?xml version="1.0" encoding="UTF-8"?>
<svg id="Layer_10" data-name="Layer 10" xmlns="http://www.w3.org/2000/svg" viewBox="0 0 200 200">
  <defs>
    <style>
      .cls-1, .cls-2 {
        fill: #231f20;
      }

      .cls-3, .cls-4 {
        fill: #fff;
      }

      .cls-4, .cls-2 {
        stroke: #231f20;
        stroke-miterlimit: 10;
      }
    </style>
  </defs>
  <g id="_3rd" data-name="3rd">
    <path class="cls-4" d="M59.13,94.72h23.02c2.76,0,5,2.24,5,5v64.07h-33.02v-64.07c0-2.76,2.24-5,5-5Z"/>
  </g>
  <g id="_2nd" data-name="2nd">
    <path class="cls-4" d="M116.15,65.91h23.02c2.76,0,5,2.24,5,5v92.88h-33.02v-92.88c0-2.76,2.24-5,5-5Z"/>
  </g>
  <g id="_1st" data-name="1st">
    <path class="cls-2" d="M86.87,47.7h23.02c2.76,0,5,2.24,5,5v111.09h-33.02V52.7c0-2.76,2.24-5,5-5Z"/>
  </g>
  <g id="_1" data-name="1">
    <path class="cls-3" d="M99.32,59.39h-.74c-.92,0-1.38-.33-1.38-.98,0-.44.16-.79.48-1.04s.77-.37,1.35-.37h2.15c.86,0,1.29.35,1.29,1.04,0,.19-.06.42-.17.7l-4.1,10.12c-.41,1-.97,1.49-1.69,1.49-.31,0-.57-.1-.78-.3-.21-.2-.32-.44-.32-.72,0-.21.05-.46.16-.74l.12-.29,3.62-8.92Z"/>
  </g>
  <g id="_2" data-name="2">
    <path class="cls-1" d="M127.97,84.99h3.19c.91,0,1.36.32,1.36.97,0,.44-.16.78-.48,1.03s-.77.37-1.34.37h-5.33c-.44,0-.79-.11-1.05-.33-.26-.22-.39-.52-.39-.89,0-.39.18-.77.54-1.14l6.02-6.19c.34-.35.52-.72.52-1.1,0-.35-.13-.65-.4-.9-.27-.25-.58-.38-.96-.38s-.72.13-.99.39c-.27.26-.41.57-.41.93,0,.28.09.59.28.93.16.3.25.57.25.81,0,.36-.11.65-.34.88-.23.23-.53.34-.89.34-.54,0-1.01-.26-1.39-.79-.38-.53-.57-1.17-.57-1.94,0-1.12.4-2.07,1.21-2.83.81-.76,1.81-1.14,3.01-1.14s2.08.34,2.81,1.02,1.1,1.55,1.1,2.62c0,1-.38,1.89-1.15,2.67l-4.6,4.67Z"/>
  </g>
  <g id="_3" data-name="3">
    <path class="cls-1" d="M70.95,106.03c1.1.74,1.65,1.75,1.65,3.04,0,1-.28,1.96-.84,2.88-.95,1.57-2.34,2.35-4.18,2.35-1.19,0-2.15-.32-2.87-.96-.73-.64-1.09-1.48-1.09-2.52,0-.73.18-1.35.55-1.87s.81-.77,1.32-.77c.3,0,.56.11.78.32.22.21.33.46.33.75,0,.15-.06.42-.17.82-.09.32-.14.54-.14.68,0,.35.12.63.36.85.24.21.55.32.93.32.6,0,1.14-.29,1.62-.87.48-.58.72-1.23.72-1.94,0-.87-.44-1.45-1.31-1.75-.6-.2-.9-.54-.9-1.03,0-.31.11-.59.34-.85l.21-.24,1.79-1.99h-2.44c-.91,0-1.36-.32-1.36-.96,0-.39.15-.72.45-.99.3-.27.67-.41,1.11-.41h4.4c1.14,0,1.71.43,1.71,1.29,0,.41-.14.76-.42,1.06l-2.57,2.79Z"/>
  </g>
  <g id="Underline">
    <path class="cls-1" d="M27.57,165.29h123.52c5.67,0,11.39.2,17.06,0,.08,0,.16,0,.23,0,1.93,0,1.93-3,0-3H44.87c-5.67,0-11.39-.2-17.06,0-.08,0-.16,0-.23,0-1.93,0-1.93,3,0,3h0Z"/>
  </g>
  <g id="Flower">
    <g>
      <path class="cls-1" d="M182.71,33.15c-.88-.45-1.97-.92-3.26-1.27-5.86-1.61-10.96.37-12.86,1.25-2.72,1.26-4.7,2.94-6.06,4.37-.15.16-.42.05-.42-.17.07-1.98-.13-4.59-1.15-7.43-.71-1.97-2.89-7-8.15-10.02-1.15-.66-2.25-1.11-3.19-1.42s-1.98.11-2.44,1-.92,1.97-1.27,3.26c-1.61,5.86.37,10.96,1.25,12.86,1.26,2.72,2.94,4.7,4.37,6.06.16.15.05.42-.17.42-1.98-.07-4.59.13-7.43,1.15-1.97.71-7,2.89-10.02,8.16-.62,1.08-1.05,2.1-1.36,3-.36,1.06.12,2.22,1.12,2.72.85.42,1.88.85,3.07,1.18,5.86,1.61,10.96-.37,12.86-1.25,2.72-1.26,4.7-2.94,6.06-4.37.15-.16.42-.05.42.17-.07,1.98.13,4.59,1.15,7.43.71,1.97,2.89,7,8.16,10.02,1.15.66,2.25,1.11,3.19,1.42s1.98-.11,2.44-1,.92-1.97,1.27-3.26c1.61-5.86-.37-10.96-1.25-12.86-1.26-2.72-2.94-4.7-4.37-6.06-.16-.15-.05-.42.17-.42,1.98.07,4.59-.13,7.43-1.15,1.97-.71,7-2.89,10.02-8.15.66-1.15,1.11-2.25,1.42-3.19s-.11-1.98-1-2.44Z"/>
      <circle class="cls-3" cx="157.09" cy="45.09" r="4.87" transform="translate(-5.88 57.37) rotate(-20.32)"/>
    </g>
  </g>
</svg>