<?xml version="1.0" encoding="UTF-8"?>
<svg id="Layer_2" data-name="Layer 2" xmlns="http://www.w3.org/2000/svg" viewBox="0 0 200 200">
  <g id="Layer_10" data-name="Layer 10">
    <path d="M141.89,158.62c-.35-.09-.77-.16-1.26-.19-2.21-.1-3.86,1.03-4.46,1.49-.86.67-1.43,1.42-1.79,2.04-.04.07-.15.05-.16-.03-.14-.71-.42-1.62-1.01-2.54-.41-.64-1.6-2.25-3.71-2.89-.46-.14-.89-.21-1.25-.24-.36-.03-.69.2-.78.55-.09.35-.16.77-.19,1.26-.1,2.21,1.03,3.86,1.49,4.46.67.86,1.42,1.43,2.04,1.79.07.04.05.15-.03.16-.71.14-1.62.42-2.54,1.01-.64.41-2.25,1.6-2.89,3.71-.13.43-.2.83-.24,1.17-.04.41.22.78.62.87.34.08.74.15,1.19.17,2.21.1,3.86-1.03,4.46-1.49.86-.67,1.43-1.42,1.79-2.04.04-.07.15-.05.16.03.14.71.42,1.62,1.01,2.54.41.64,1.6,2.25,3.71,2.89.46.14.89.21,1.25.24.36.03.69-.2.78-.55.09-.35.16-.77.19-1.26.1-2.21-1.03-3.86-1.49-4.46-.67-.86-1.42-1.43-2.04-1.79-.07-.04-.05-.15.03-.16.71-.14,1.62-.42,2.54-1.01.64-.41,2.25-1.6,2.89-3.71.14-.46.21-.89.24-1.25.03-.36-.2-.69-.55-.78ZM134.98,166.25c-.72.66-1.84.61-2.51-.11-.66-.72-.61-1.84.11-2.51.72-.66,1.84-.61,2.51.11.66.72.61,1.84-.11,2.51Z" fill="#fff"/>
  </g>
  <g id="Layer_9" data-name="Layer 9">
    <path d="M48.67,108.16c-19.15,17.62-25.87,27.23-28.09,30.88-.46.92-.82,2.5-.91,4.2-.14,2.76,1.01,5.4,3.06,7.25,2.91,2.62,8.07,5.98,15.96,8.73,7.7,2.42,17.45,4.94,29.9,6.58,19.54,2.59,38.34,2.65,51.54.98" fill="none" stroke="#fff" stroke-linecap="round" stroke-miterlimit="10" stroke-width="4"/>
  </g>
  <g id="Layer_8" data-name="Layer 8">
    <path d="M62.49,108.19c3.32,3.48,12.05,11.09,35.64,11.09,21.18,0,33.22-11.35,39.86-14.17,1.36-.58,2.91-.52,4.22.16,6.96,3.62,25.89,19.65,34.91,39.23.65,1.42.61,3.07-.13,4.44-1.45,2.69-5.06,4.72-6.31,5.4-7.97,4.17-17.18,6.02-25.09,8.03" fill="none" stroke="#fff" stroke-linecap="round" stroke-miterlimit="10" stroke-width="4"/>
  </g>
  <g id="Layer_7" data-name="Layer 7">
    <circle cx="96.87" cy="67.6" r="41.21" fill="none" stroke="#fff" stroke-miterlimit="10" stroke-width="4"/>
  </g>
</svg>